<svg id="Calque_1" data-name="Calque 1" xmlns="http://www.w3.org/2000/svg" viewBox="0 0 60 84"><defs><style>.cls-1{fill:none;stroke:#a4dae7;stroke-miterlimit:10;stroke-width:0.5px;}.cls-2{fill:#0080bb;}</style></defs><title>icons</title><rect class="cls-1" x="30.2" y="53.43" width="12.6" height="26.6" rx="0.7" ry="0.7"/><path class="cls-1" d="M34.56,49.45,34,51.11a.7.7,0,0,0,1.08.78l1.39-1,1.39,1A.7.7,0,0,0,39,51.11l-.53-1.66,1.4-1a.7.7,0,0,0-.41-1.26H37.7l-.53-1.65a.7.7,0,0,0-1.33,0l-.53,1.65H33.58a.7.7,0,0,0-.41,1.26Z"/><rect class="cls-1" x="19" y="67.43" width="9.8" height="12.6" rx="0.7" ry="0.7"/><rect class="cls-1" x="44.2" y="61.83" width="9.8" height="18.2" rx="0.7" ry="0.7"/><path class="cls-2" d="M24.13,28.51a1.16,1.16,0,1,0-2.13.92,8.76,8.76,0,0,0,7.83,5.27h.38A8.75,8.75,0,0,0,38,29.43a1.16,1.16,0,1,0-2.13-.92,6.41,6.41,0,0,1-5.69,3.87h-.33A6.42,6.42,0,0,1,24.13,28.51Z"/><path class="cls-2" d="M48.84,31.06A12.18,12.18,0,1,0,34.23,12.12a14.69,14.69,0,0,0-8.47,0,12.18,12.18,0,1,0-14.6,18.94A15.69,15.69,0,0,0,1,45.73v7.55a1.16,1.16,0,0,0,1.16,1.16h8.44a20.06,20.06,0,0,0-.31,3.48v7A1.16,1.16,0,0,0,11.42,66H48.58a1.16,1.16,0,0,0,1.16-1.16v-7a20.06,20.06,0,0,0-.31-3.48h8.44A1.16,1.16,0,0,0,59,53.28V45.73A15.62,15.62,0,0,0,48.84,31.06ZM43.35,10.32A9.87,9.87,0,0,1,43.94,30a15.48,15.48,0,0,0,.57-4,14.67,14.67,0,0,0-8-13A9.81,9.81,0,0,1,43.35,10.32Zm-9.14,4.23a12.19,12.19,0,0,1-4.05,23.64h-.44a12.2,12.2,0,0,1-3.93-23.64A12.38,12.38,0,0,1,34.21,14.54ZM6.78,20.18A9.87,9.87,0,0,1,23.45,13a14.65,14.65,0,0,0-8,13,15.5,15.5,0,0,0,.57,4A9.88,9.88,0,0,1,6.78,20.18ZM3.29,45.73A13.4,13.4,0,0,1,16.73,32.37H17a14.75,14.75,0,0,0,6.93,6.77,19.85,19.85,0,0,0-12.77,13H3.29Zm44.12,18H12.58V57.92c0-10.71,9.6-18,17.71-17.41A17.38,17.38,0,0,1,47.42,57.92Zm9.29-11.61H48.87a19.88,19.88,0,0,0-12.75-13A14.84,14.84,0,0,0,43,32.38a13.34,13.34,0,0,1,13.67,13q0,.17,0,.34Z"/></svg>