<svg id="Calque_1" data-name="Calque 1" xmlns="http://www.w3.org/2000/svg" viewBox="0 0 60 84"><defs><style>.cls-1{fill:none;stroke:#a4dae7;stroke-miterlimit:10;stroke-width:0.5px;}.cls-2{fill:#0080bb;}</style></defs><title>icons</title><path class="cls-1" d="M45.5,55A12.5,12.5,0,1,0,58,67.5,12.5,12.5,0,0,0,45.5,55Zm6.11,18.61a8.65,8.65,0,0,1-12.23,0,1,1,0,0,1,1.36-1.31,6.73,6.73,0,0,0,9.52,0l0,0a1,1,0,0,1,1.36,1.36Z"/><path class="cls-1" d="M39.74,31.94H12.82a2.88,2.88,0,0,0-2.88,2.88V50.2a2.88,2.88,0,0,0,2.88,2.88H23l7.4,7.41A1,1,0,0,0,32,59.81V53.08h7.69a2.88,2.88,0,0,0,2.88-2.88V34.82A2.88,2.88,0,0,0,39.74,31.94ZM16.66,39.63H35.89a1,1,0,0,1,0,1.92H16.66a1,1,0,0,1,0-1.92Zm20.19,6.73H15.7a1,1,0,1,1,0-1.92H36.85a1,1,0,1,1,0,1.92Z"/><path class="cls-2" d="M16.1,35.87A15.1,15.1,0,1,0,31.19,51,15.1,15.1,0,0,0,16.1,35.87Zm0,27.87A12.77,12.77,0,1,1,28.87,51,12.77,12.77,0,0,1,16.1,63.74Z"/><path class="cls-2" d="M21.9,56.77a8.13,8.13,0,0,1-11.5,0h0a1.16,1.16,0,0,0-1.64,1.64,10.45,10.45,0,0,0,14.77,0A1.16,1.16,0,1,0,22,56.65Z"/><path class="cls-2" d="M55.58,8H23.06a3.48,3.48,0,0,0-3.48,3.48V30.06a3.48,3.48,0,0,0,3.48,3.48h9.29v8.13a1.16,1.16,0,0,0,2,.82l8.94-9h12.3a3.48,3.48,0,0,0,3.48-3.48V11.48A3.48,3.48,0,0,0,55.58,8Zm1.16,22.06a1.16,1.16,0,0,1-1.16,1.16H42.81a1.16,1.16,0,0,0-.82.34l-7.3,7.32V32.39a1.16,1.16,0,0,0-1.16-1.16H23.06a1.16,1.16,0,0,1-1.16-1.16V11.48a1.16,1.16,0,0,1,1.16-1.16H55.58a1.16,1.16,0,0,1,1.16,1.16Z"/><path class="cls-2" d="M52.1,16.13H26.55a1.16,1.16,0,1,0,0,2.32H52.1a1.16,1.16,0,1,0,0-2.32Z"/><path class="cls-2" d="M52.1,21.94H26.55a1.16,1.16,0,1,0,0,2.32H52.1a1.16,1.16,0,1,0,0-2.32Z"/></svg>