<svg id="Calque_1" data-name="Calque 1" xmlns="http://www.w3.org/2000/svg" viewBox="0 0 60 84"><defs><style>.cls-1{fill:none;stroke:#a4dae7;stroke-miterlimit:10;stroke-width:0.5px;}.cls-2{fill:#0080bb;}</style></defs><title>icons</title><path class="cls-1" d="M38.5,38.61A20.5,20.5,0,1,0,59,59.11,20.5,20.5,0,0,0,38.5,38.61Zm9.62,22.7L35.82,74.43a.82.82,0,0,1-1.4-.72L36.75,62l-7.64-3.82a.82.82,0,0,1-.25-1.27L40.35,43.81a.82.82,0,0,1,1.43.66L40.21,55.41,47.94,60a.82.82,0,0,1,.18,1.26Z"/><path class="cls-2" d="M31.16,12.67V10.32h3.48a1.16,1.16,0,0,0,0-2.32H25.36a1.16,1.16,0,1,0,0,2.32h3.48v2.35a26.68,26.68,0,1,0,2.32,0ZM30,63.68A24.36,24.36,0,1,1,54.36,39.32,24.36,24.36,0,0,1,30,63.68Z"/><path class="cls-2" d="M31.16,18.44A1.16,1.16,0,0,0,30,17.28a22.06,22.06,0,0,0-22,22,1.16,1.16,0,0,0,2.32,0A19.74,19.74,0,0,1,30,19.6,1.16,1.16,0,0,0,31.16,18.44Z"/><path class="cls-2" d="M40.78,24.58l-9.29,9.29A3.42,3.42,0,0,0,30,33.52,3.48,3.48,0,1,0,33.48,37a3.42,3.42,0,0,0-.35-1.49l9.29-9.29a1.16,1.16,0,0,0-1.64-1.64Z"/></svg>